<svg xmlns="http://www.w3.org/2000/svg" xmlns:xlink="http://www.w3.org/1999/xlink" width="500" zoomAndPan="magnify" viewBox="0 0 375 374.999991" height="500" preserveAspectRatio="xMidYMid meet" version="1.0"><defs><g/><clipPath id="bb7ede3f88"><path d="M 84.089844 57.777344 L 287.339844 57.777344 L 287.339844 267.777344 L 84.089844 267.777344 Z M 84.089844 57.777344 " clip-rule="nonzero"/></clipPath><clipPath id="7157773c46"><path d="M 101 104 L 261 104 L 261 267.777344 L 101 267.777344 Z M 101 104 " clip-rule="nonzero"/></clipPath><clipPath id="3d8e81f814"><path d="M 161.734375 102.601562 L 277.515625 102.601562 L 277.515625 237.777344 L 161.734375 237.777344 Z M 161.734375 102.601562 " clip-rule="nonzero"/></clipPath><clipPath id="743d72e09c"><path d="M 128.273438 87.847656 L 234 87.847656 L 234 214 L 128.273438 214 Z M 128.273438 87.847656 " clip-rule="nonzero"/></clipPath></defs><rect x="-37.5" width="450" fill="transparent" y="-37.499999" height="449.999989" fill-opacity="1"/><rect x="-37.5" width="450" fill="transparent" y="-37.499999" height="449.999989" fill-opacity="1"/><g clip-path="url(#bb7ede3f88)"><path fill="#005f9f" d="M 287.398438 115.558594 C 268.75 87.742188 237.023438 69.433594 201.019531 69.433594 C 143.628906 69.433594 97.105469 115.957031 97.105469 173.351562 C 97.105469 215.34375 122.011719 251.519531 157.863281 267.902344 C 115.003906 253.660156 84.089844 213.230469 84.089844 165.585938 C 84.089844 106.050781 132.351562 57.789062 191.886719 57.789062 C 233.363281 57.789062 269.371094 81.214844 287.398438 115.558594 Z M 287.398438 115.558594 " fill-opacity="1" fill-rule="nonzero"/></g><g clip-path="url(#7157773c46)"><path fill="#8bc53f" d="M 260.421875 236.503906 C 243.820312 255.308594 219.53125 267.167969 192.472656 267.167969 C 142.421875 267.167969 101.847656 226.59375 101.847656 176.546875 C 101.847656 147.117188 115.878906 120.960938 137.613281 104.410156 C 123.5 120.386719 114.9375 141.378906 114.9375 164.367188 C 114.9375 214.417969 155.511719 254.992188 205.5625 254.992188 C 226.183594 254.992188 245.195312 248.101562 260.421875 236.503906 Z M 260.421875 236.503906 " fill-opacity="1" fill-rule="nonzero"/></g><path fill="#105d91" d="M 172.078125 225.347656 L 172.078125 213.203125 C 183.011719 200.46875 184.4375 187.5 181.179688 173.597656 C 176.777344 154.8125 160.902344 142.691406 154.65625 138.558594 C 161.355469 141.414062 179.441406 150.546875 187.171875 168.472656 C 194.863281 186.3125 193.714844 203.972656 172.078125 225.347656 " fill-opacity="1" fill-rule="nonzero"/><g clip-path="url(#3d8e81f814)"><path fill="#8bc53f" d="M 246.703125 131.78125 C 238.242188 144.972656 233.710938 160.355469 233.710938 160.355469 C 235.613281 145.425781 241.941406 131.78125 241.941406 131.78125 C 249.378906 113.234375 259.148438 102.714844 259.148438 102.714844 C 259.136719 102.71875 259.125 102.726562 259.117188 102.734375 C 258.136719 103.398438 238.585938 110.878906 221.363281 172.046875 C 206.378906 225.273438 161.804688 234.34375 161.804688 234.34375 C 161.804688 234.34375 166.085938 234.164062 172.078125 232.84375 L 172.078125 237.777344 L 209.164062 237.777344 C 222.71875 237.777344 233.710938 226.773438 233.710938 213.203125 L 233.710938 193.492188 L 277.515625 193.492188 L 277.515625 156.355469 C 277.515625 142.785156 266.527344 131.78125 252.96875 131.78125 L 246.703125 131.78125 " fill-opacity="1" fill-rule="nonzero"/></g><g clip-path="url(#743d72e09c)"><path fill="#1b75bb" d="M 211.539062 145.117188 C 211.359375 146.625 210.9375 148.046875 210.316406 149.304688 C 209.082031 151.789062 207.050781 153.652344 204.457031 154.347656 C 198.960938 155.832031 193.023438 151.519531 191.203125 144.726562 C 191.113281 144.390625 191.035156 144.058594 190.96875 143.726562 C 190.445312 141.121094 190.617188 138.566406 191.351562 136.355469 C 191.886719 131.867188 194.523438 128.167969 198.433594 127.121094 C 203.929688 125.636719 209.863281 129.949219 211.691406 136.742188 C 212.480469 139.691406 212.367188 142.625 211.539062 145.117188 Z M 196.621094 87.921875 C 183.066406 87.921875 172.078125 98.925781 172.078125 112.496094 L 172.078125 131.78125 L 128.273438 131.78125 L 128.273438 168.914062 C 128.273438 178.363281 133.59375 186.5625 141.398438 190.675781 C 144.808594 192.472656 148.695312 193.492188 152.816406 193.492188 L 172.078125 193.492188 L 172.078125 213.199219 C 183.015625 200.46875 184.4375 187.5 181.179688 173.597656 C 176.777344 154.8125 160.902344 142.691406 154.652344 138.558594 C 153.050781 137.871094 152.101562 137.546875 152.101562 137.546875 C 152.519531 137.597656 152.933594 137.652344 153.34375 137.714844 C 153.960938 137.796875 154.566406 137.890625 155.164062 137.988281 C 171.570312 140.671875 183.816406 147.746094 192.128906 154.417969 C 194.464844 156.292969 196.492188 158.136719 198.210938 159.835938 C 202.28125 163.859375 204.644531 167.105469 205.375 168.160156 C 205.542969 168.402344 205.625 168.527344 205.625 168.527344 C 205.855469 167.976562 206.089844 167.429688 206.324219 166.890625 C 214.660156 147.605469 224.664062 133.539062 233.710938 123.578125 L 233.710938 87.921875 L 196.621094 87.921875 " fill-opacity="1" fill-rule="nonzero"/></g><path fill="#105d91" d="M 211.539062 145.117188 C 211.359375 146.625 210.9375 148.046875 210.316406 149.304688 C 209.082031 151.789062 207.050781 153.652344 204.457031 154.347656 C 198.960938 155.832031 193.023438 151.519531 191.203125 144.726562 C 191.113281 144.390625 191.035156 144.058594 190.96875 143.726562 C 190.445312 141.121094 190.617188 138.566406 191.351562 136.355469 C 191.167969 137.871094 191.222656 139.476562 191.550781 141.101562 C 191.617188 141.4375 191.695312 141.769531 191.785156 142.101562 C 193.605469 148.902344 199.542969 153.210938 205.039062 151.726562 C 207.632812 151.027344 209.664062 149.167969 210.898438 146.683594 C 211.144531 146.183594 211.359375 145.660156 211.539062 145.117188 " fill-opacity="1" fill-rule="nonzero"/><g fill="#005f9f" fill-opacity="1"><g transform="translate(79.271084, 309.311499)"><g><path d="M 23.328125 0 L 23.28125 -13.609375 L 16.609375 -2.390625 L 14.25 -2.390625 L 7.609375 -13.3125 L 7.609375 0 L 2.6875 0 L 2.6875 -22.671875 L 7.03125 -22.671875 L 15.515625 -8.578125 L 23.875 -22.671875 L 28.1875 -22.671875 L 28.25 0 Z M 23.328125 0 "/></g></g></g><g fill="#005f9f" fill-opacity="1"><g transform="translate(110.20491, 309.311499)"><g><path d="M 20.25 -4.203125 L 20.25 0 L 2.6875 0 L 2.6875 -22.671875 L 19.828125 -22.671875 L 19.828125 -18.46875 L 7.90625 -18.46875 L 7.90625 -13.546875 L 18.4375 -13.546875 L 18.4375 -9.453125 L 7.90625 -9.453125 L 7.90625 -4.203125 Z M 20.25 -4.203125 "/></g></g></g><g fill="#005f9f" fill-opacity="1"><g transform="translate(131.939572, 309.311499)"><g><path d="M 2.6875 -22.671875 L 12.984375 -22.671875 C 15.453125 -22.671875 17.628906 -22.203125 19.515625 -21.265625 C 21.398438 -20.328125 22.863281 -19.003906 23.90625 -17.296875 C 24.957031 -15.585938 25.484375 -13.601562 25.484375 -11.34375 C 25.484375 -9.070312 24.957031 -7.082031 23.90625 -5.375 C 22.863281 -3.664062 21.398438 -2.34375 19.515625 -1.40625 C 17.628906 -0.46875 15.453125 0 12.984375 0 L 2.6875 0 Z M 12.734375 -4.3125 C 14.992188 -4.3125 16.796875 -4.941406 18.140625 -6.203125 C 19.492188 -7.460938 20.171875 -9.175781 20.171875 -11.34375 C 20.171875 -13.5 19.492188 -15.207031 18.140625 -16.46875 C 16.796875 -17.726562 14.992188 -18.359375 12.734375 -18.359375 L 7.9375 -18.359375 L 7.9375 -4.3125 Z M 12.734375 -4.3125 "/></g></g></g><g fill="#005f9f" fill-opacity="1"><g transform="translate(158.694906, 309.311499)"><g><path d="M 2.6875 -22.671875 L 7.9375 -22.671875 L 7.9375 0 L 2.6875 0 Z M 2.6875 -22.671875 "/></g></g></g><g fill="#005f9f" fill-opacity="1"><g transform="translate(169.319299, 309.311499)"><g><path d="M 13.546875 0.390625 C 11.234375 0.390625 9.140625 -0.109375 7.265625 -1.109375 C 5.398438 -2.117188 3.929688 -3.515625 2.859375 -5.296875 C 1.796875 -7.078125 1.265625 -9.09375 1.265625 -11.34375 C 1.265625 -13.582031 1.796875 -15.59375 2.859375 -17.375 C 3.929688 -19.15625 5.398438 -20.546875 7.265625 -21.546875 C 9.140625 -22.554688 11.242188 -23.0625 13.578125 -23.0625 C 15.535156 -23.0625 17.304688 -22.710938 18.890625 -22.015625 C 20.484375 -21.328125 21.820312 -20.335938 22.90625 -19.046875 L 19.53125 -15.9375 C 18 -17.707031 16.097656 -18.59375 13.828125 -18.59375 C 12.421875 -18.59375 11.164062 -18.285156 10.0625 -17.671875 C 8.96875 -17.054688 8.113281 -16.195312 7.5 -15.09375 C 6.882812 -13.988281 6.578125 -12.738281 6.578125 -11.34375 C 6.578125 -9.9375 6.882812 -8.679688 7.5 -7.578125 C 8.113281 -6.472656 8.96875 -5.613281 10.0625 -5 C 11.164062 -4.382812 12.421875 -4.078125 13.828125 -4.078125 C 16.097656 -4.078125 18 -4.972656 19.53125 -6.765625 L 22.90625 -3.65625 C 21.820312 -2.34375 20.476562 -1.335938 18.875 -0.640625 C 17.28125 0.046875 15.503906 0.390625 13.546875 0.390625 Z M 13.546875 0.390625 "/></g></g></g><g fill="#005f9f" fill-opacity="1"><g transform="translate(193.062227, 309.311499)"><g><path d="M 17.625 -4.859375 L 7.09375 -4.859375 L 5.078125 0 L -0.296875 0 L 9.8125 -22.671875 L 15 -22.671875 L 25.140625 0 L 19.625 0 Z M 15.96875 -8.84375 L 12.375 -17.515625 L 8.78125 -8.84375 Z M 15.96875 -8.84375 "/></g></g></g><g fill="#005f9f" fill-opacity="1"><g transform="translate(217.874069, 309.311499)"><g><path d="M 17.140625 0 L 12.765625 -6.3125 L 7.9375 -6.3125 L 7.9375 0 L 2.6875 0 L 2.6875 -22.671875 L 12.5 -22.671875 C 14.507812 -22.671875 16.253906 -22.335938 17.734375 -21.671875 C 19.210938 -21.003906 20.347656 -20.050781 21.140625 -18.8125 C 21.941406 -17.582031 22.34375 -16.128906 22.34375 -14.453125 C 22.34375 -12.765625 21.9375 -11.3125 21.125 -10.09375 C 20.320312 -8.875 19.175781 -7.9375 17.6875 -7.28125 L 22.765625 0 Z M 17.03125 -14.453125 C 17.03125 -15.722656 16.617188 -16.695312 15.796875 -17.375 C 14.984375 -18.050781 13.789062 -18.390625 12.21875 -18.390625 L 7.9375 -18.390625 L 7.9375 -10.5 L 12.21875 -10.5 C 13.789062 -10.5 14.984375 -10.84375 15.796875 -11.53125 C 16.617188 -12.21875 17.03125 -13.191406 17.03125 -14.453125 Z M 17.03125 -14.453125 "/></g></g></g><g fill="#005f9f" fill-opacity="1"><g transform="translate(241.681783, 309.311499)"><g><path d="M 20.25 -4.203125 L 20.25 0 L 2.6875 0 L 2.6875 -22.671875 L 19.828125 -22.671875 L 19.828125 -18.46875 L 7.90625 -18.46875 L 7.90625 -13.546875 L 18.4375 -13.546875 L 18.4375 -9.453125 L 7.90625 -9.453125 L 7.90625 -4.203125 Z M 20.25 -4.203125 "/></g></g></g><g fill="#005f9f" fill-opacity="1"><g transform="translate(263.416445, 309.311499)"><g/></g></g><g fill="#005f9f" fill-opacity="1"><g transform="translate(272.583232, 309.311499)"><g><path d="M 16.96875 0 L 11.5 -7.875 L 6.125 0 L 0.09375 0 L 8.484375 -11.53125 L 0.515625 -22.671875 L 6.484375 -22.671875 L 11.6875 -15.328125 L 16.8125 -22.671875 L 22.484375 -22.671875 L 14.578125 -11.71875 L 23.03125 0 Z M 16.96875 0 "/></g></g></g></svg>